<?xml version="1.0" encoding="utf-8"?>
<!-- Generator: Adobe Illustrator 16.0.0, SVG Export Plug-In . SVG Version: 6.00 Build 0)  -->
<!DOCTYPE svg PUBLIC "-//W3C//DTD SVG 1.1//EN" "http://www.w3.org/Graphics/SVG/1.1/DTD/svg11.dtd">
<svg version="1.1" xmlns="http://www.w3.org/2000/svg" xmlns:xlink="http://www.w3.org/1999/xlink" x="0px" y="0px" width="450px"
	 height="491.656px" viewBox="0 0 450 491.656" enable-background="new 0 0 450 491.656" xml:space="preserve">
<g id="_x2014_ÎÓÈ_x5F_2">
</g>
<g id="_x2014_ÎÓÈ_x5F_1">
	<g>
		<g>
			
				<linearGradient id="SVGID_1_" gradientUnits="userSpaceOnUse" x1="-116.0483" y1="686.2451" x2="190.7213" y2="265.8025" gradientTransform="matrix(0.6883 -0.5546 0.7171 0.6174 -229.0094 7.0502)">
				<stop  offset="0" style="stop-color:#8ECCED"/>
				<stop  offset="0.0336" style="stop-color:#93CFED"/>
				<stop  offset="0.2096" style="stop-color:#A8DAEF"/>
				<stop  offset="0.4065" style="stop-color:#B7E3F0"/>
				<stop  offset="0.6396" style="stop-color:#BFE8F1"/>
				<stop  offset="1" style="stop-color:#C2E9F1"/>
			</linearGradient>
			<path fill="url(#SVGID_1_)" d="M221.61,0.904c0,0-196.654,126.487-218.94,279.922
				c-14.542,100.113,31.051,190.444,118.794,207.532c54.779,10.67,160.123-38.828,169.884-154.965
				C301.637,211.021,205.115,181.276,221.61,0.904z"/>
			<g>
				<g>
					<path fill="#FFFFFF" d="M140.431,490.186c-0.082,0.143-0.202,0.264-0.356,0.346c-0.443,0.239-0.994,0.076-1.232-0.362
						c-28.011-51.37-41.121-109.1-38.966-171.587c1.724-49.959,13.153-103.05,33.975-157.798
						C169.291,67.599,220.376,1.015,220.89,0.354c0.304-0.396,0.876-0.471,1.274-0.166c0.398,0.302,0.463,0.875,0.167,1.266
						c-0.51,0.661-51.459,67.066-86.794,160.013c-32.584,85.7-58.183,212.146,4.904,327.841
						C140.596,489.592,140.582,489.924,140.431,490.186z"/>
				</g>
				<g>
					<path fill="#FFFFFF" d="M142.449,144.043c-0.051,0.089-0.117,0.169-0.198,0.239c-0.382,0.324-0.955,0.279-1.282-0.098
						c-0.235-0.273-23.487-27.573-25.806-56.412c-0.038-0.493,0.33-0.932,0.833-0.972c0.501-0.039,0.939,0.33,0.979,0.828
						c2.272,28.261,25.145,55.113,25.375,55.38C142.606,143.306,142.633,143.722,142.449,144.043z"/>
				</g>
				<g>
					<path fill="#FFFFFF" d="M228.647,116.009c-0.111,0.194-0.296,0.348-0.527,0.418c-50.525,15.141-95.196,52.537-95.643,52.913
						c-0.382,0.324-0.956,0.277-1.281-0.104c-0.326-0.379-0.278-0.947,0.105-1.273c0.448-0.377,45.399-38.012,96.294-53.266
						c0.481-0.145,0.987,0.126,1.133,0.604C228.804,115.547,228.767,115.802,228.647,116.009z"/>
				</g>
				<g>
					<path fill="#FFFFFF" d="M111.829,239.467c-0.008,0.015-0.018,0.031-0.029,0.046c-0.274,0.417-0.838,0.534-1.258,0.262
						c-0.379-0.244-38.156-25.055-64.555-67.682c-0.263-0.428-0.125-0.985,0.298-1.243c0.428-0.261,0.988-0.129,1.251,0.296
						c26.177,42.269,63.625,66.875,64,67.117C111.941,238.526,112.066,239.055,111.829,239.467z"/>
				</g>
				<g>
					<path fill="#FFFFFF" d="M260.021,200.284c-0.133,0.232-0.368,0.403-0.656,0.445c-96.924,14.397-152.586,65.964-153.137,66.482
						c-0.364,0.344-0.94,0.328-1.285-0.032c-0.344-0.361-0.328-0.939,0.034-1.276c0.556-0.524,56.635-52.479,154.121-66.958
						c0.496-0.075,0.959,0.265,1.032,0.759C260.162,199.911,260.119,200.114,260.021,200.284z"/>
				</g>
				<g>
					<path fill="#FFFFFF" d="M101.382,337.55c-0.216,0.374-0.679,0.551-1.1,0.399c-0.655-0.238-65.718-24.211-95.917-70.451
						c-0.274-0.421-0.15-0.981,0.267-1.249c0.421-0.271,0.985-0.153,1.258,0.265c29.864,45.728,94.365,69.504,95.014,69.738
						c0.472,0.172,0.714,0.69,0.543,1.158C101.43,337.459,101.407,337.505,101.382,337.55z"/>
				</g>
				<g>
					<path fill="#FFFFFF" d="M291.737,294.519c-0.142,0.247-0.398,0.425-0.704,0.452c-96.967,9.016-186.45,79.968-187.342,80.683
						c-0.392,0.312-0.964,0.252-1.279-0.135c-0.314-0.39-0.255-0.959,0.136-1.271c0.896-0.719,90.794-72.009,188.314-81.074
						c0.501-0.048,0.943,0.317,0.99,0.813C291.871,294.18,291.827,294.362,291.737,294.519z"/>
				</g>
				<g>
					<path fill="#FFFFFF" d="M112.68,420.854c-0.191,0.333-0.583,0.521-0.98,0.437c-0.62-0.132-62.406-13.609-106.453-51.827
						c-0.38-0.329-0.42-0.897-0.087-1.275c0.33-0.376,0.906-0.413,1.284-0.086c43.684,37.904,105.021,51.291,105.635,51.422
						c0.492,0.105,0.805,0.585,0.7,1.072C112.758,420.689,112.725,420.776,112.68,420.854z"/>
				</g>
				<g>
					<path fill="#FFFFFF" d="M274.523,398.6c-0.159,0.28-0.464,0.465-0.808,0.457c-84.308-1.849-156.655,35.537-157.375,35.916
						c-0.444,0.232-0.995,0.064-1.229-0.376c-0.232-0.443-0.058-0.99,0.38-1.221c0.724-0.381,73.489-37.985,158.261-36.126
						c0.503,0.012,0.901,0.425,0.89,0.922C274.64,398.328,274.598,398.473,274.523,398.6z"/>
				</g>
			</g>
		</g>
		<g>
			<rect y="482.74" fill="#8ECCED" width="430.323" height="8.916"/>
			<rect y="305.582" fill="#8ECCED" width="207.053" height="157.575"/>
		</g>
		<g>
			<rect y="463.157" fill="#5494C4" width="442.476" height="19.583"/>
			<rect y="287.476" fill="#5494C4" width="214.896" height="18.106"/>
		</g>
		<g>
			<path fill="#5494C4" d="M47.696,462.04c-22.448-64.322-32.391-133.567-29.241-207.971c36.998-16.89,78.965-17.823,126.263-1.645
				c17.337,69.039,27.289,141.118,29.241,210.732L47.696,462.04z"/>
			<g>
				<path fill="#8ECCED" d="M79.966,269.78c-18.764,0-37.517-3.25-56.146-9.757c-0.486-0.171-0.743-0.704-0.573-1.189
					c0.168-0.487,0.699-0.736,1.19-0.574c38.89,13.577,78.341,12.826,117.254-2.256c0.482-0.182,1.022,0.053,1.209,0.535
					c0.187,0.48-0.053,1.023-0.533,1.21C121.665,265.768,100.809,269.78,79.966,269.78z"/>
			</g>
		</g>
		<g>
			<path fill="#263E5E" d="M407.286,441.339l25.548-44.582c0,0-24.237,26.577-52.814,23.19c-0.693-0.081-6.715,4.214-6.436,8.903
				c0.406,6.85-5.052,13.569,12.675,11.952C402.656,439.307,401.876,441.826,407.286,441.339z"/>
			<path fill="#2D4F92" d="M400.189,466.206l-1.248-53.077c0,0-4.528,24.158-26.255,29.318c-0.679,0.162-6.948,3.816-6.943,8.515
				c0.01,6.859-5.83,13.252,11.961,12.668C394.161,463.088,394.76,466.379,400.189,466.206z"/>
			<path fill="#2D4F92" d="M79.171,403.517c2.309-27.019,20.477-44.064,40.858-43.348c7.673,0.271,79.312,11.942,130.526,29.733
				c36.797,10.658,90.675,33.514,129.118,49.513l1.239,25.007c-51.166-2.523-98.883,8.361-125.373-16.512
				c-43.998,14.056-119.077,19.131-143.87,10.104C91.413,454.936,76.863,430.535,79.171,403.517z"/>
			<path fill="#263E5E" d="M407.787,452.591c6.906,3.495,31.271-35.798,41.15-52.513c1.877-3.177,1.19-6.973-1.455-7.809
				c-5.937-1.877-15.698-1.954-24.875,9.585C413.998,412.68,399.966,448.635,407.787,452.591z"/>
			<path fill="#4070B7" d="M79.047,407.874c0.829-27.172,18.019-45.936,38.385-47.198c7.668-0.474,79.753,4.214,131.802,16.986
				c37.281,7.059,96.078,28.553,135.293,40.777l-1.873,23.777c-51.168,2.448-97.507,15.052-125.283-7.185
				c-43.115,18.289-117.718,30.638-142.939,24.042C94.061,457.969,78.219,435.046,79.047,407.874z"/>
			<path fill="#2D4F92" d="M400.189,466.206c-9.683,0.757-18.323-45.33-21.438-64.756c-0.592-3.691,2.076-7.024,5.535-6.841
				c7.769,0.414,19.051,3.937,23.916,18.215C412.769,426.22,411.155,465.349,400.189,466.206z"/>
			<circle fill="#C04429" cx="121.446" cy="346.209" r="18.016"/>
			<path fill="#E7A527" d="M149.23,183.33c17.851,5.071,33.156,24.454,27.991,70.696c-4.943,44.256-16.041,63.236,32.148,124.338
				c-60.487-4.528-84.582,74.686-130.836,58.647c-3.745-89.702-30.915-116.89,3.809-211.511
				C95.468,189.862,121.446,175.439,149.23,183.33z"/>
			<circle fill="#D96F21" cx="103.404" cy="223.119" r="21.547"/>
			<circle fill="#D96F21" cx="74.683" cy="357.602" r="18.017"/>
			<path fill="#D96F21" d="M82.86,215.566c5.583-10.201,13.69-16.088,25.297-13.463c13.789,3.118,18.752,14.243,17.71,26.098
				c-6.525,74.186-28.355,88.276-32.993,134.614c-0.859,8.582-11.07,14.87-24.021,11.939c-8.482-1.918-12.996-10.385-12.911-19.009
				C56.833,265.256,77.489,225.38,82.86,215.566z"/>
			<g>
				<path fill="#E2AD99" d="M242.439,353.252c-0.615,1.654-3.456,0.139-8.136-2.665c0,0,3.81,3.592,2.479,4.642
					c-1.851,1.462-8.506-1.81-8.506-1.81s2.028,1.783,1.71,3.012c-0.315,1.217-3.626,1.124-9.79-0.592
					c-3.185-0.887-9.188,1.617-11.893,3.018c-2.705,1.4-7.84,3.704-10.586,2.597c-2.746-1.107-6.768,2.604-7.627-1.532
					s18.175-19.231,22.77-20.185c4.595-0.955,13.718,1.345,18.024,3.087S243.163,351.308,242.439,353.252z"/>
				<g>
					<path fill="#DE9E85" d="M226.697,353.238c-0.099,0-0.198-0.022-0.289-0.074c-0.037-0.021-3.706-2.05-8.034-2.05
						c-0.034,0-0.067,0-0.1,0h-0.003c-0.324,0-0.588-0.259-0.59-0.584c-0.002-0.364,0.329-0.596,0.698-0.596
						c4.642,0,8.447,2.113,8.607,2.201c0.285,0.158,0.386,0.518,0.227,0.803C227.103,353.131,226.902,353.238,226.697,353.238z"/>
				</g>
				<g>
					<path fill="#DE9E85" d="M232.645,350.2c-0.13,0-0.258-0.04-0.366-0.125c-0.059-0.049-5.829-4.545-14.098-4.36
						c-0.327,0.004-0.596-0.248-0.605-0.574c-0.007-0.324,0.25-0.596,0.576-0.603c0.204-0.008,0.407-0.011,0.609-0.011
						c8.323,0,14.006,4.43,14.251,4.622c0.255,0.203,0.298,0.573,0.096,0.829C232.99,350.126,232.818,350.2,232.645,350.2z"/>
				</g>
			</g>
			<circle fill="#D96F21" cx="74.352" cy="357.183" r="18.016"/>
			<path fill="#D96F21" d="M197.373,362.419c-64.029,10.174-118.003,13.674-123.964,13.014
				c-10.705-1.187-17.458-9.215-16.815-19.144c0.64-9.886,4.221-17.229,17.142-18.177c37.309-2.736,68.805,4.647,122.927,10.973
				L197.373,362.419z"/>
			<g>
				<path fill="#DB8C6F" d="M125.765,186.193c5.214-5.064,8.964-16.081,11.198-24.369c1.454-5.393,6.758-8.662,11.814-7.167l0,0
					c5.056,1.494,7.73,7.122,6.02,12.438c-2.63,8.171-5.471,19.456-3.847,26.54C148.564,200.962,123.785,193.639,125.765,186.193z"
					/>
			</g>
			<g>
				<path fill="#E2AD99" d="M191.375,123.74c-2.442,16.865-11.285,57.771-31.875,56.857c-14.115-0.627-29.33-29.398-27.783-42.912
					c1.566-13.699-3.207-36.277,30.328-35.476C189.019,102.854,192.717,114.477,191.375,123.74z"/>
				<path fill="#2A49A4" d="M131.143,107.193c0.724-5.065,3.519-12.29,16.282-18.378c12.763-6.089,27.086-7.173,27.086-7.173
					c-5.704,5.951-4.298,10.869-4.298,10.869c18.448-2.241,8.002-18.298,8.002-18.298s16.711,3.807,20.417,16.469
					c5.386,18.406-7.186,27.446-7.186,27.446s-2.428-12.256-25.287-11.368c-22.054,0.856-19.744,16.207-18.908,18.894
					c0.572,1.841,1.143,3.886,1.781,6.215c2.258,8.241-3.393,9.708-3.393,9.708c0.095-1.958,0.885-6.682-3.25-10.606
					c-3.179-3.016-10.05-1.973-10.132,5.424c-0.089,8.124,5.549,10.833,6.97,18.322c1.421,7.488-9.636,9.258-9.636,9.258
					s3.238-3.652,2.034-11.114c-1.205-7.461-3.389-16.546-5.823-25.353c-0.548-1.984-2.183-8.731-1.315-15.33
					C125.28,106.14,131.143,107.193,131.143,107.193z"/>
			</g>
			<g>
				
					<rect x="157.48" y="374.252" transform="matrix(-0.9931 -0.117 0.117 -0.9931 389.1027 775.1301)" fill="#4070B7" width="119.625" height="3.796"/>
				<polygon fill="#5494C4" points="267.26,279.386 383.072,292.829 384.526,295.398 323.743,388.311 207.931,374.867 
					206.139,372.626 				"/>
				
					<rect x="205.57" y="379.739" transform="matrix(-0.9931 -0.117 0.117 -0.9931 481.3492 791.5213)" fill="#5494C4" width="116.657" height="3.796"/>
				<g>
					<path fill="#8ECCED" d="M209.876,371.716c-0.124,0-0.248-0.033-0.359-0.107c-0.299-0.196-0.383-0.603-0.185-0.902
						l58.924-89.527c0.199-0.295,0.602-0.385,0.902-0.185c0.301,0.196,0.383,0.604,0.185,0.903l-58.923,89.526
						C210.294,371.613,210.087,371.716,209.876,371.716z"/>
				</g>
				<path fill="#8ECCED" d="M310.587,336.725c-2.912,5.462-9.162,9.128-13.96,8.188c-4.797-0.938-6.324-6.127-3.412-11.589
					c2.913-5.46,9.162-9.126,13.959-8.188C311.972,326.076,313.5,331.265,310.587,336.725z"/>
			</g>
		</g>
	</g>
</g>
</svg>
